<?xml version="1.0" encoding="UTF-8"?>
<svg version="1.1" xmlns="http://www.w3.org/2000/svg" width="176" height="250">
<path d="M0 0 C10.13329773 7.44807183 16.48168858 17.21184618 19.62109375 29.4140625 C20.99683295 38.80312799 20.61337285 48.18651231 17 57 C16.74476563 57.67160156 16.48953125 58.34320313 16.2265625 59.03515625 C13.47704805 65.37921941 8.74853488 70.08048678 4 75 C3.24332031 75.78503906 2.48664063 76.57007812 1.70703125 77.37890625 C-4.60690332 83.80784873 -4.60690332 83.80784873 -9.625 84.5 C-13.24063303 84.42680253 -14.86661059 83.65004023 -17.5078125 81.2109375 C-18.19987793 80.57446289 -18.89194336 79.93798828 -19.60498047 79.28222656 C-20.39533691 78.5290918 -21.18569336 77.77595703 -22 77 C-22.93344238 76.11538086 -23.86688477 75.23076172 -24.82861328 74.31933594 C-27.45739531 71.80942861 -30.05313024 69.26775884 -32.63769531 66.71240234 C-33.71442495 65.65230299 -34.79650168 64.59760792 -35.88378906 63.54833984 C-43.17688248 56.50741291 -49.69666009 50.11184148 -50.5 39.5 C-50.17988276 33.18596343 -47.6528405 28.06605063 -43.75 23.1875 C-37.64193559 18.3288124 -32.58856463 16.28181811 -24.67578125 16.62109375 C-18.03540806 17.56140937 -13.34883852 20.77720556 -9.2578125 26.01953125 C-5.61812115 31.75034962 -4.38321368 37.28366551 -5.49609375 43.984375 C-6.21690907 46.86763628 -6.99230226 48.78460939 -9 51 C-11.875 52.125 -11.875 52.125 -15 52 C-17.875 50.25 -17.875 50.25 -20 47 C-20.18100437 44.1502336 -20.06016204 41.3864088 -19.9296875 38.53515625 C-19.78584749 35.83565275 -19.78584749 35.83565275 -21.6875 33.375 C-24.31351234 31.81358726 -25.93289699 31.07480739 -29 31 C-31.2831838 32.1415919 -33.19012683 33.19012683 -35 35 C-35.77125985 39.24192916 -35.92283377 41.62288466 -33.484375 45.26171875 C-31.56584052 47.41118794 -29.59160466 49.47307042 -27.53320312 51.48876953 C-25.79173896 53.20527641 -24.09147378 54.95810482 -22.390625 56.71484375 C-21.13670612 57.99865653 -19.88150118 59.28121448 -18.625 60.5625 C-18.01833496 61.1827002 -17.41166992 61.80290039 -16.78662109 62.44189453 C-16.20992676 63.0192334 -15.63323242 63.59657227 -15.0390625 64.19140625 C-14.52553223 64.70904541 -14.01200195 65.22668457 -13.48291016 65.76000977 C-11.90131846 67.23620773 -11.90131846 67.23620773 -9 68 C-1.18943198 61.10832233 4.26788453 54.00544566 5.9375 43.5 C6.46954671 34.47132853 4.18630099 26.38108344 -1 19 C-3.35412766 16.39585286 -3.35412766 16.39585286 -6 14 C-8.63868058 11.50997748 -11.09538711 9.10381359 -13 6 C-12.68141392 2.04953261 -12.17551391 0.13197636 -9.3125 -2.625 C-5.64592123 -3.21958034 -3.05635131 -1.85984867 0 0 Z " fill="#A55DCA" transform="translate(116,50)"/>
<path d="M0 0 C11.63142809 9.08658539 22.3806153 22.75292995 26.03515625 37.37109375 C25.56684529 42.73715682 25.56684529 42.73715682 23.41015625 45.30859375 C19.78804601 46.92901149 17.80863619 46.53810748 14.03515625 45.37109375 C12.00478164 42.66197156 10.89352568 39.63154825 9.66015625 36.49609375 C2.65148655 20.41086761 -7.46172374 9.90513448 -23.96484375 3.37109375 C-38.01113163 -1.68556989 -54.20183565 -1.40975249 -67.96484375 4.37109375 C-68.81949219 4.69851562 -69.67414063 5.0259375 -70.5546875 5.36328125 C-84.68680377 11.48050061 -94.08375469 23.93284824 -99.65234375 37.87109375 C-100.00683594 38.85078125 -100.36132812 39.83046875 -100.7265625 40.83984375 C-102.11594937 43.67997842 -103.20953922 44.85128224 -105.96484375 46.37109375 C-109.58984375 46.24609375 -109.58984375 46.24609375 -112.96484375 45.37109375 C-115.2342871 41.96692872 -115.10288131 40.48873403 -114.48583984 36.546875 C-113.60859183 32.8833163 -112.02603831 29.69063588 -110.27734375 26.37109375 C-109.73279541 25.31801025 -109.73279541 25.31801025 -109.17724609 24.24365234 C-106.53131434 19.22606936 -103.77522192 14.60088123 -99.96484375 10.37109375 C-99.25972656 9.57445313 -98.55460937 8.7778125 -97.828125 7.95703125 C-72.1102018 -19.45885467 -29.85777338 -22.10268313 0 0 Z " fill="#6896D2" transform="translate(132.96484375,30.62890625)"/>
<path d="M0 0 C2.875 1.0625 2.875 1.0625 4.8125 2.75 C6.27249958 5.92764614 5.65529474 7.67577569 4.875 11.0625 C1.95905805 18.12311416 -1.83684671 24.07311461 -7.03515625 29.63671875 C-7.50727036 30.14298294 -7.97938446 30.64924713 -8.46580505 31.17085266 C-13.84573596 36.90046242 -19.38601945 42.47447224 -24.95336914 48.02124023 C-26.72077542 49.78317236 -28.48262425 51.55054062 -30.24414062 53.31835938 C-31.37207445 54.44563417 -32.50031747 55.57259968 -33.62890625 56.69921875 C-34.15279434 57.22513107 -34.67668243 57.7510434 -35.21644592 58.29289246 C-38.53013266 61.58503739 -40.05735282 62.91523832 -44.75 63.5625 C-50.57092338 63.40686034 -53.21646994 60.03229229 -57.125 56.0625 C-58.39076536 54.86198028 -59.65924296 53.6643169 -60.9296875 52.46875 C-62.30873269 51.14733557 -63.68632161 49.82439978 -65.0625 48.5 C-65.73804932 47.86312256 -66.41359863 47.22624512 -67.10961914 46.57006836 C-70.08272883 43.64540654 -71.90527439 41.79780224 -73.1171875 37.7421875 C-73.12561413 34.85185399 -72.78084386 33.41554128 -71.125 31.0625 C-68.05867098 29.52933549 -66.55849365 29.48694326 -63.125 30.0625 C-60.12436831 32.45455287 -57.62403629 35.27645684 -55.0625 38.125 C-53.69039032 39.64999098 -52.30419122 41.16245596 -50.90234375 42.66015625 C-50.29640381 43.33570557 -49.69046387 44.01125488 -49.06616211 44.70727539 C-47.19589135 46.281191 -47.19589135 46.281191 -44.75732422 46.10595703 C-41.21314976 44.70104128 -38.87607212 42.42444768 -36.23046875 39.76953125 C-35.67941971 39.22705246 -35.12837067 38.68457367 -34.56062317 38.12565613 C-33.3949465 36.97145523 -32.23446213 35.81199008 -31.07885742 34.64770508 C-29.34562769 32.90824674 -27.58781617 31.19693899 -25.82617188 29.48632812 C-19.16540535 22.8973445 -14.13962846 16.50070559 -9.8996582 8.12768555 C-7.40791702 3.82395593 -5.23093853 0.10461877 0 0 Z " fill="#CF59A5" transform="translate(151.125,106.9375)"/>
<path d="M0 0 C3 1.25 3 1.25 5 4.25 C5.44921875 6.6171875 5.44921875 6.6171875 5 9.25 C2.76953125 11.7578125 2.76953125 11.7578125 -0.1875 14.375 C-8.1711121 21.89453756 -11.75739584 29.83097557 -12.19140625 40.91796875 C-11.64989485 50.34468765 -8.33231148 57.77354824 -2.29296875 64.93359375 C-1 67.25 -1 67.25 -1.16015625 70.4140625 C-2 73.25 -2 73.25 -4.25 75.1875 C-7.60115872 76.48226587 -8.69973275 76.69889782 -12 75.25 C-19.92833802 68.35579302 -25.08059236 57.47210389 -26.23486328 47.1496582 C-27.11254877 33.4511584 -25.17705606 21.09158887 -15.97265625 10.2890625 C-4.84650983 -1.21162746 -4.84650983 -1.21162746 0 0 Z " fill="#C454B4" transform="translate(67,48.75)"/>
<path d="M0 0 C2.12867822 2.58021603 3.53294456 5.07993591 5.0390625 8.046875 C9.88765033 17.34824757 17.30146365 24.39055714 24.71484375 31.671875 C25.30156357 32.24850891 25.88828339 32.82514282 26.49278259 33.41925049 C28.92530354 35.80592778 31.35963191 38.19046136 33.80786133 40.56103516 C35.61936739 42.31803657 37.41788692 44.08751247 39.21484375 45.859375 C39.76687973 46.38762878 40.31891571 46.91588257 40.88768005 47.46014404 C44.18170812 50.73143409 46.05070109 53.42897584 47 58 C46.0625 60.8125 46.0625 60.8125 44 63 C40.8125 64.25 40.8125 64.25 37 64 C29.74495268 59.18835128 23.52721839 51.78098431 17.35522461 45.65039062 C16.16634097 44.47300238 14.97301137 43.30008553 13.77514648 42.13183594 C5.76984873 34.32339878 -1.03800551 26.49123546 -7 17 C-7.483479 16.23107422 -7.96695801 15.46214844 -8.46508789 14.66992188 C-10.35871676 11.33145936 -11 9.04592392 -11 5.1875 C-10 2 -10 2 -8.3125 0 C-5.02437302 -1.42189275 -3.36785546 -1.19278214 0 0 Z " fill="#F36C73" transform="translate(31,108)"/>
<path d="M0 0 C1.08477631 -0.00637985 2.16955261 -0.0127597 3.28720093 -0.01933289 C4.45908966 -0.02044571 5.63097839 -0.02155853 6.83837891 -0.02270508 C8.04305817 -0.02603348 9.24773743 -0.02936188 10.48892212 -0.03279114 C13.0393231 -0.03785772 15.58973071 -0.04019955 18.14013672 -0.04003906 C22.04226616 -0.04222363 25.94411208 -0.06037726 29.84619141 -0.0793457 C32.32275294 -0.08228004 34.79931581 -0.08426457 37.27587891 -0.08520508 C38.44371918 -0.09239059 39.61155945 -0.09957611 40.81478882 -0.10697937 C42.45140976 -0.10236443 42.45140976 -0.10236443 44.12109375 -0.09765625 C45.55646988 -0.09979378 45.55646988 -0.09979378 47.02084351 -0.10197449 C49.9341801 0.16788747 52.06936438 0.85938304 54.68994141 2.14526367 C56.5017466 4.53355233 56.72157398 5.71295188 56.50244141 8.70776367 C55.5882352 11.4503823 54.98269016 12.41461486 52.68994141 14.14526367 C50.03356934 14.5262146 50.03356934 14.5262146 46.79736328 14.53344727 C45.58600708 14.54290375 44.37465088 14.55236023 43.12658691 14.56210327 C41.8171814 14.55603058 40.50777588 14.54995789 39.15869141 14.54370117 C37.80252933 14.54572218 36.44636832 14.54863385 35.09020996 14.55239868 C32.24883674 14.55682083 29.40774656 14.5503949 26.56640625 14.53637695 C22.92442037 14.51928464 19.28309771 14.52912648 15.64113617 14.54709435 C12.84099328 14.55793542 10.04100761 14.55448446 7.24085999 14.54671097 C5.24500091 14.54373665 3.24913573 14.55284707 1.2532959 14.56210327 C0.0419397 14.55264679 -1.1694165 14.54319031 -2.41748047 14.53344727 C-3.48542847 14.53106049 -4.55337646 14.52867371 -5.65368652 14.5262146 C-8.31005859 14.14526367 -8.31005859 14.14526367 -10.11975098 12.80459595 C-11.95093781 10.25185465 -12.24644999 8.26208542 -12.31005859 5.14526367 C-8.85532191 0.58007592 -5.48058357 0.02186779 0 0 Z " fill="#302D3D" transform="translate(66.31005859375,180.854736328125)"/>
<path d="M0 0 C1.7772068 -0.0236412 1.7772068 -0.0236412 3.59031677 -0.04776001 C4.86641312 -0.03763885 6.14250946 -0.0275177 7.45727539 -0.01708984 C8.77151993 -0.02187347 10.08576447 -0.0266571 11.43983459 -0.03158569 C14.21995467 -0.03895 16.99927047 -0.0282697 19.77929688 -0.00488281 C23.33516336 0.02357957 26.88914082 0.00721831 30.44493771 -0.02274513 C33.84503303 -0.04520916 37.24462645 -0.02945681 40.64477539 -0.01708984 C41.9188475 -0.027211 43.19291962 -0.03733215 44.50559998 -0.04776001 C54.32316857 0.08249117 54.32316857 0.08249117 57.45947266 3.02441406 C59.11743164 5.64697266 59.11743164 5.64697266 59.11743164 8.27197266 C58.07027099 10.75897919 57.24479298 12.01054086 55.11743164 13.64697266 C52.05196803 14.66879386 49.92703479 14.78557125 46.71557617 14.80810547 C45.61077911 14.81771301 44.50598206 14.82732056 43.3677063 14.83721924 C42.17394379 14.84146912 40.98018127 14.84571899 39.75024414 14.85009766 C38.52336884 14.85579773 37.29649353 14.8614978 36.03244019 14.86737061 C33.43496565 14.8768231 30.83747911 14.88335557 28.23999023 14.88720703 C24.26533115 14.89691672 20.29118817 14.92794044 16.31665039 14.95947266 C13.79451805 14.96600227 11.272382 14.9712529 8.75024414 14.97509766 C7.56053009 14.98744446 6.37081604 14.99979126 5.14505005 15.01251221 C3.47839798 15.00801056 3.47839798 15.00801056 1.77807617 15.00341797 C0.80339386 15.0070636 -0.17128845 15.01070923 -1.17550659 15.01446533 C-4.40959303 14.5754273 -6.28089297 13.59581602 -8.88256836 11.64697266 C-9.94506836 8.77197266 -9.94506836 8.77197266 -9.88256836 5.64697266 C-7.07974304 1.09927206 -5.30193571 0.02024217 0 0 Z " fill="#342F40" transform="translate(63.882568359375,200.35302734375)"/>
<path d="M0 0 C9.9 0 19.8 0 30 0 C30.33 0.99 30.66 1.98 31 3 C28.09664625 8.24837024 24.76758185 12.07747272 19 14 C12.89572219 14.50868982 8.80696012 13.96726329 4 10 C0.9659806 6.26582228 0 4.86309584 0 0 Z " fill="#333040" transform="translate(73,220)"/>
<path d="M0 0 C3.0625 0.5 3.0625 0.5 5.4375 2.5 C7.69901355 6.67510194 7.73673269 8.78037115 7.0625 13.5 C4.9375 16.0625 4.9375 16.0625 2.0625 17.5 C-1.37532608 17.5 -3.1545088 17.10618674 -5.875 15 C-7.49672953 11.1841658 -7.08694684 7.45031415 -5.9375 3.5 C-3.9452456 0.96285551 -3.26989648 0.55657812 0 0 Z " fill="#DD5D95" transform="translate(21.9375,83.5)"/>
<path d="M0 0 C2.58388497 1.99820438 4.40858702 4.14919545 6 7 C6.3125 10.25 6.3125 10.25 5 13 C1.75 15.0625 1.75 15.0625 -2 16 C-5.66988535 14.58208975 -8.19360593 12.51243292 -10 9 C-9.87177883 5.85858144 -9.4995896 3.78882568 -7.8125 1.125 C-4.91907191 -0.67092088 -3.3418843 -0.65527143 0 0 Z " fill="#E1608E" transform="translate(74,123)"/>
<path d="M0 0 C2.2827144 1.67040983 2.92604929 2.55919576 3.3984375 5.375 C3.39070312 6.24125 3.38296875 7.1075 3.375 8 C3.38273438 8.86625 3.39046875 9.7325 3.3984375 10.625 C2.92421789 13.45172083 2.31480836 14.34656546 0 16 C-6.11123057 16.6547747 -6.11123057 16.6547747 -8.69140625 14.75390625 C-10.76832121 11.97022022 -10.47377702 9.53093858 -10.34765625 6.1640625 C-10 4 -10 4 -8.375 1.4375 C-5.31352771 -0.41549639 -3.5214898 -0.5244772 0 0 Z " fill="#7485D4" transform="translate(158,84)"/>
<path d="M0 0 C2.875 1.0625 2.875 1.0625 4.875 3.25 C5.875 6.0625 5.875 6.0625 5.25 9.25 C3.875 12.0625 3.875 12.0625 0.875 14.0625 C-5.57783019 13.60966981 -5.57783019 13.60966981 -8.125 11.0625 C-8.5625 7.6875 -8.5625 7.6875 -8.125 4.0625 C-5.46834042 0.93701814 -4.11787106 0.08235742 0 0 Z " fill="#7684D5" transform="translate(89.125,40.9375)"/>
</svg>
