<?xml version="1.0" encoding="UTF-8"?>
<svg version="1.1" xmlns="http://www.w3.org/2000/svg" width="172" height="250">
<path d="M0 0 C7.85728714 0.98216089 13.70607032 7.03953319 18.64453125 12.875 C27.31859136 24.85433355 30.91426481 38.84037939 28.875 53.5 C25.62263987 69.74040355 15.31700953 84.22616031 1.5 93.4375 C-1.62865309 94.13481321 -4.35554816 94.01680621 -7.5 93.4375 C-9.23657227 92.3215332 -9.23657227 92.3215332 -10.94140625 90.73828125 C-11.62952393 90.10237061 -12.3176416 89.46645996 -13.02661133 88.8112793 C-13.84282959 88.02793213 -14.65904785 87.24458496 -15.5 86.4375 C-15.99293549 85.96817047 -16.48587097 85.49884094 -16.9937439 85.01528931 C-20.50408041 81.66792488 -23.97252111 78.28074659 -27.41943359 74.86816406 C-28.64166268 73.66256172 -29.86924172 72.46235959 -31.10205078 71.26757812 C-45.09705175 57.69982035 -45.09705175 57.69982035 -47.03125 47.6875 C-46.92795338 40.2501432 -44.61186283 35.01142172 -40.875 28.6875 C-35.50776549 23.60275152 -29.7105214 21.13242905 -22.3125 20.9375 C-14.94417497 21.2955516 -9.49034187 23.69114495 -4.078125 28.65234375 C0.95987391 34.35126826 1.94431319 40.44647761 1.8359375 47.859375 C1.34684263 51.61289379 0.3550539 54.48744011 -2.1875 57.3125 C-5.56767622 58.95691006 -7.91884523 58.29962985 -11.5 57.4375 C-13.5 55.4375 -13.5 55.4375 -13.58984375 53.046875 C-13.53957031 52.10328125 -13.48929688 51.1596875 -13.4375 50.1875 C-13.35735815 45.48379017 -13.67417352 42.3734726 -16.5 38.4375 C-19.16449395 36.24880855 -20.56046401 36.43962154 -24.0625 36.5625 C-27.45547093 37.16156131 -27.45547093 37.16156131 -29.4375 39.0625 C-31.01757465 42.59443158 -31.14178588 44.58678474 -30.5 48.4375 C-29.25036171 50.27286432 -29.25036171 50.27286432 -27.56640625 52.04296875 C-26.93186523 52.73986816 -26.29732422 53.43676758 -25.64355469 54.15478516 C-24.93618164 54.90808105 -24.22880859 55.66137695 -23.5 56.4375 C-22.74364258 57.24364746 -21.98728516 58.04979492 -21.20800781 58.88037109 C-18.76735596 61.44528332 -16.29472533 63.97534346 -13.8125 66.5 C-12.97138672 67.37849609 -12.13027344 68.25699219 -11.26367188 69.16210938 C-10.45091797 69.98646484 -9.63816406 70.81082031 -8.80078125 71.66015625 C-8.07028564 72.41047119 -7.33979004 73.16078613 -6.5871582 73.93383789 C-4.63365957 75.68615073 -4.63365957 75.68615073 -2.33813477 75.24902344 C5.57373149 71.75599071 9.3462425 62.94090291 12.5 55.4375 C15.16498415 47.16962748 14.12902551 37.22958822 10.5 29.4375 C6.58407571 22.93796589 2.14969911 17.61790129 -3.93359375 13.0703125 C-5.98818053 10.92862353 -6.27368323 9.36576184 -6.5 6.4375 C-3.59589041 0.62928082 -3.59589041 0.62928082 0 0 Z " fill="#A55DC9" transform="translate(108.5,41.5625)"/>
<path d="M0 0 C2.12142857 1.63051948 4.15376043 3.31537791 6.17578125 5.06640625 C7.00078125 5.70320313 7.82578125 6.34 8.67578125 6.99609375 C18.11007085 14.80886483 28.10355187 29.77930497 30.17578125 42.06640625 C30.05078125 46.00390625 30.05078125 46.00390625 29.17578125 49.06640625 C25.44322677 51.5547759 23.5913719 51.60867177 19.17578125 51.06640625 C16.04473841 47.79411336 14.41184283 44.59662487 12.86328125 40.37890625 C10.41253267 34.24826443 7.18817462 29.27876773 3.17578125 24.06640625 C2.43328125 23.03515625 1.69078125 22.00390625 0.92578125 20.94140625 C-10.84737127 8.63311043 -27.04734367 1.62352362 -44 0.984375 C-53.49399285 0.93378534 -62.03947244 2.31060891 -70.82421875 6.06640625 C-71.67242187 6.41574219 -72.520625 6.76507812 -73.39453125 7.125 C-89.09241417 14.2357965 -99.29134483 27.00277975 -105.53027344 42.72290039 C-108.10553111 49.18423788 -108.10553111 49.18423788 -110.82421875 51.06640625 C-115.19128783 51.45632313 -117.12935772 51.52964694 -120.82421875 49.06640625 C-123.18430651 41.10111007 -118.76421489 34.04189058 -115.31640625 26.9765625 C-105.43866788 8.81965694 -88.99190107 -4.31847055 -69.5625 -11.06640625 C-66.9871249 -11.79018152 -64.44937101 -12.422913 -61.82421875 -12.93359375 C-60.92574219 -13.1140625 -60.02726562 -13.29453125 -59.1015625 -13.48046875 C-37.90843642 -16.41062683 -17.67051114 -12.0980678 0 0 Z " fill="#6896D2" transform="translate(131.82421875,21.93359375)"/>
<path d="M0 0 C3.5 0.875 3.5 0.875 5.5 2.5 C6.94717074 5.9370305 6.24203299 8.24770169 5.5 11.875 C-1.69131167 28.28695239 -15.02841443 40.57036001 -27.4375 53.0625 C-27.99355927 53.62409821 -28.54961853 54.18569641 -29.12252808 54.76431274 C-30.73067095 56.38412836 -32.34629719 57.99605528 -33.96484375 59.60546875 C-34.44783936 60.09240204 -34.93083496 60.57933533 -35.4284668 61.08102417 C-39.39118076 64.990592 -42.69624205 67.50813398 -48.1875 68.625 C-53.8878115 68.33892489 -57.14707464 64.31696681 -60.94140625 60.43798828 C-62.73318271 58.64115982 -64.58199342 56.91448337 -66.4375 55.18359375 C-67.81377369 53.8737328 -69.18877474 52.56253338 -70.5625 51.25 C-71.23031494 50.62923584 -71.89812988 50.00847168 -72.58618164 49.36889648 C-75.75566375 46.26832507 -77.3362747 44.45861122 -78.55859375 40.1015625 C-78.5 36.875 -78.5 36.875 -76.5 33.875 C-73.41758654 31.82005769 -72.10407183 31.39935987 -68.49755859 32.04199219 C-64.04907356 33.89706808 -60.99416265 38.00268513 -57.8125 41.5 C-56.34127736 43.10728213 -54.8586989 44.70426663 -53.36328125 46.2890625 C-52.71657471 47.0001416 -52.06986816 47.7112207 -51.40356445 48.44384766 C-49.63311783 50.12269709 -49.63311783 50.12269709 -47.56211853 49.61929321 C-44.11272685 48.37428291 -41.81239131 45.65523618 -39.265625 43.109375 C-38.66876892 42.52013245 -38.07191284 41.93088989 -37.45697021 41.3237915 C-36.19238087 40.07001026 -34.93175158 38.81222412 -33.67480469 37.55078125 C-31.78441842 35.65943588 -29.87394371 33.79030054 -27.9609375 31.921875 C-19.5612964 23.60482624 -13.02174587 15.40542123 -7.98144531 4.62792969 C-5.85245528 0.67168519 -4.50224023 -0.16079429 0 0 Z " fill="#D059A5" transform="translate(153.5,106.125)"/>
<path d="M0 0 C1.9375 1 1.9375 1 3 3 C4.07367963 7.79026299 4.07367963 7.79026299 3 11 C1.0078125 13.03125 1.0078125 13.03125 -1.5625 15.125 C-9.51609287 21.70027138 -13.95563365 30.35919437 -15.125 40.625 C-15.37573933 52.08935934 -12.00374442 60.10608841 -5 69 C-2.83448884 72.24826674 -2.44843047 73.23094157 -3 77 C-5.04903076 79.83711952 -6.59172096 80.84911427 -9.875 82.0625 C-13.41941751 81.99161165 -14.94209963 81.13305166 -17.4921875 78.703125 C-28.10488377 66.71572715 -30.81000991 52.81195429 -30.17919922 37.27392578 C-29.19580026 24.79520934 -22.27950916 12.69344698 -13.15625 4.3046875 C-8.81333888 0.71343407 -5.83985265 -1.03056223 0 0 Z " fill="#C454B5" transform="translate(65,43)"/>
<path d="M0 0 C2.07369258 2.42253807 3.47859057 5.20850541 5 8 C11.67009064 19.50986618 20.48158688 28.65004893 29.98046875 37.83203125 C30.57045654 38.40482819 31.16044434 38.97762512 31.76831055 39.56777954 C34.19267545 41.92010058 36.61686161 44.27163405 39.06860352 46.59545898 C40.88884762 48.32496405 42.68592696 50.07592309 44.48046875 51.83203125 C45.03655319 52.34884964 45.59263763 52.86566803 46.16557312 53.39814758 C48.98554699 56.19714758 49.96710397 57.7450516 50.48168945 61.7331543 C50 65 50 65 47.8125 67.4375 C44.70549152 69.16361582 43.47715964 69.44148207 40 69 C37.76367187 67.46191406 37.76367187 67.46191406 35.46875 65.265625 C34.59863281 64.44126953 33.72851562 63.61691406 32.83203125 62.76757812 C31.43017578 61.39762695 31.43017578 61.39762695 30 60 C29.0042675 59.04064054 28.0081657 58.08166425 27.01171875 57.12304688 C24.35659594 54.55565673 21.73013238 51.96083827 19.11376953 49.35400391 C17.50868342 47.75863087 15.89319141 46.1743062 14.27734375 44.58984375 C-9.87044357 20.69085307 -9.87044357 20.69085307 -12 6 C-10.75 2.8125 -10.75 2.8125 -9 0 C-5.28995854 -1.23668049 -3.71417204 -1.26281849 0 0 Z " fill="#F36C73" transform="translate(24,107)"/>
<path d="M0 0 C1.22484604 -0.00953201 2.44969208 -0.01906403 3.71165466 -0.02888489 C5.69142052 -0.02751778 5.69142052 -0.02751778 7.71118164 -0.02612305 C9.08354319 -0.03001207 10.45590353 -0.03434717 11.82826233 -0.03910828 C14.70227971 -0.04656239 17.57617423 -0.04628515 20.45019531 -0.04101562 C24.126673 -0.03522205 27.80264672 -0.05215257 31.4790411 -0.0753603 C34.31269758 -0.09011793 37.14623324 -0.09096661 39.97992134 -0.08785057 C41.99232832 -0.0886112 44.0047166 -0.10246776 46.01707458 -0.11653137 C47.24507278 -0.11030258 48.47307098 -0.10407379 49.73828125 -0.09765625 C50.81653671 -0.09828568 51.89479218 -0.0989151 53.00572205 -0.0995636 C56.38077297 0.33177782 58.25053567 1.20029459 60.93383789 3.2746582 C62.05883789 6.6496582 62.05883789 6.6496582 61.93383789 10.2746582 C59.44601113 13.44544356 57.92528779 15.06955252 53.92979431 15.89611816 C52.81600906 15.89406372 51.70222382 15.89200928 50.5546875 15.88989258 C49.2866478 15.899198 48.01860809 15.90850342 46.71214294 15.91809082 C45.33681111 15.90250514 43.96149029 15.8859202 42.58618164 15.8684082 C41.16801556 15.86669601 39.74984631 15.86676389 38.3316803 15.86853027 C35.36501633 15.86687961 32.3991104 15.8482283 29.43261719 15.81665039 C25.6338021 15.7769362 21.83597733 15.77261063 18.03699398 15.78011322 C15.11067157 15.78318516 12.18457102 15.77105525 9.25830269 15.75398254 C7.85770624 15.74696214 6.45708466 15.74382685 5.05647087 15.74467468 C3.09877478 15.74287347 1.14113579 15.71920531 -0.81640625 15.69458008 C-1.9293959 15.68616089 -3.04238556 15.6777417 -4.18910217 15.66906738 C-7.40399845 15.22834504 -8.78264915 14.54893719 -11.06616211 12.2746582 C-11.99583778 9.15360416 -12.33516261 7.15502349 -11.37866211 4.0246582 C-8.40962496 0.06594201 -4.67905349 0.02000838 0 0 Z " fill="#333040" transform="translate(61.066162109375,185.725341796875)"/>
<path d="M0 0 C1.24479126 -0.01591187 2.48958252 -0.03182373 3.77209473 -0.04821777 C5.12215111 -0.04948495 6.4722089 -0.04966195 7.82226562 -0.04882812 C9.21561996 -0.0559342 10.60897139 -0.06363385 12.00231934 -0.07189941 C14.91748194 -0.08532215 17.8323738 -0.08692258 20.74755859 -0.08105469 C24.47701592 -0.07515349 28.20517369 -0.10577503 31.93437958 -0.14617157 C34.81010901 -0.17206021 37.68552569 -0.17492518 40.56135559 -0.17127991 C41.93605319 -0.17296941 43.31076549 -0.18259585 44.68534851 -0.20042419 C56.76517589 -0.33989368 56.76517589 -0.33989368 60.1015625 2.73046875 C61.72851562 5.41992188 61.72851562 5.41992188 61.85351562 9.04492188 C60.72851562 12.41992188 60.72851562 12.41992188 58.54542542 14.10758972 C55.29518225 15.62180173 53.10850608 15.79432353 49.53295898 15.79223633 C48.30496078 15.79846512 47.07696259 15.80469391 45.81175232 15.81111145 C43.83502281 15.79729683 43.83502281 15.79729683 41.81835938 15.78320312 C40.44503276 15.78268405 39.0717054 15.78320358 37.69837952 15.78471375 C34.8260686 15.78462422 31.95403953 15.77423499 29.08178711 15.75610352 C25.40419442 15.73339541 21.7270124 15.7328782 18.04936886 15.73962116 C15.21574772 15.74296559 12.38221985 15.73632251 9.54861641 15.72649193 C7.53452957 15.72078437 5.52042684 15.72207415 3.5063324 15.72346497 C1.66906334 15.70916695 1.66906334 15.70916695 -0.20532227 15.69458008 C-1.28278214 15.68997269 -2.360242 15.6853653 -3.47035217 15.68061829 C-6.28073121 15.41906129 -7.91312351 14.93253478 -10.27148438 13.41992188 C-12.1636063 10.89709264 -12.27391137 9.53884448 -12.20898438 6.35742188 C-11.27148438 3.41992188 -11.27148438 3.41992188 -9.1048584 1.76257324 C-5.83076859 0.21107982 -3.61297701 0.02783003 0 0 Z " fill="#332F40" transform="translate(61.271484375,206.580078125)"/>
<path d="M0 0 C1.39120471 0.00015906 2.78241534 0.00585033 4.17358398 0.01586914 C4.90463852 0.01728409 5.63569305 0.01869904 6.38890076 0.02015686 C8.73253406 0.02577131 11.07607313 0.03832617 13.41967773 0.05102539 C15.00496282 0.05603853 16.59024939 0.06060176 18.17553711 0.06469727 C22.06945383 0.07574542 25.96329979 0.09301967 29.85717773 0.11352539 C27.81712522 7.8482099 27.81712522 7.8482099 23.98217773 10.98852539 C23.30413086 11.56344727 22.62608398 12.13836914 21.92749023 12.73071289 C17.81924422 15.47471117 13.71291161 15.44840359 8.85717773 15.11352539 C3.48593249 13.25003214 -0.04990353 9.79823944 -3.14282227 5.11352539 C-3.87329102 2.95336914 -3.87329102 2.95336914 -4.14282227 1.11352539 C-3.14282227 0.11352539 -3.14282227 0.11352539 0 0 Z " fill="#333040" transform="translate(73.142822265625,227.886474609375)"/>
<path d="M0 0 C3.4375 1 3.4375 1 5.375 2.5 C7.00477143 6.33475631 7.09900072 9.90320577 6.4375 14 C4.875 16.5625 4.875 16.5625 2.4375 18 C-3.55840164 18.7363388 -3.55840164 18.7363388 -6.4375 16.625 C-8.96017881 12.9811306 -8.6182115 10.48661886 -8.05859375 6.203125 C-7.5625 4 -7.5625 4 -5.9375 1.375 C-3.5625 0 -3.5625 0 0 0 Z " fill="#DD5D94" transform="translate(15.5625,81)"/>
<path d="M0 0 C3 2.625 3 2.625 5 6 C5.125 9.6875 5.125 9.6875 4 13 C1.25498212 15.50973063 -0.29303978 15.98527166 -4 16.0625 C-8.17007689 14.58559777 -9.70730327 12.75168556 -12 9 C-12.06562608 5.12806099 -11.83318187 3.02545461 -9.375 0 C-5.79416719 -1.50771908 -3.69841189 -1.10303513 0 0 Z " fill="#E1608E" transform="translate(72,124)"/>
<path d="M0 0 C2.70078753 2.70078753 2.29894358 4.24035172 2.3125 8 C2.32925781 9.0725 2.34601563 10.145 2.36328125 11.25 C2.18345703 12.61125 2.18345703 12.61125 2 14 C-1.76186485 16.5079099 -4.57797577 16.86417937 -9 16 C-11.45249238 13.69614352 -11.95734509 12.10708875 -12.0859375 8.76953125 C-11.86454838 5.19817518 -11.57395515 2.75055673 -9.375 -0.125 C-5.95418403 -1.38530062 -3.49805229 -0.8421237 0 0 Z " fill="#7585D4" transform="translate(162,82)"/>
<path d="M0 0 C3.375 1.0625 3.375 1.0625 5.375 2.6875 C6.87414881 6.24797842 6.50534823 8.40549102 5.375 12.0625 C2.6875 14.125 2.6875 14.125 -0.625 15.0625 C-4.19150118 14.30804783 -6.04493723 13.64256277 -8.625 11.0625 C-9.25211146 7.03106917 -8.93110745 5.49847122 -6.5625 2.125 C-3.625 0.0625 -3.625 0.0625 0 0 Z " fill="#7684D4" transform="translate(86.625,34.9375)"/>
</svg>
